<svg width="77" height="71" viewBox="0 0 77 71" fill="none" xmlns="http://www.w3.org/2000/svg">
<path id="Union" fill-rule="evenodd" clip-rule="evenodd" d="M66.148 38.6484C59.2325 39.9454 48.8085 39.4911 38.5458 37.1152H38.5488C24.5744 33.8816 14.7451 28.1825 11.2754 25.8305C10.4865 25.2956 10.077 24.3572 10.2205 23.4128C11.2665 16.4674 12.6771 10.3409 13.5138 6.97881C13.9024 5.41879 15.2083 4.26521 16.8042 4.07096C18.8458 3.82391 21.2706 3.35375 23.8976 2.84439C28.8657 1.88111 34.5571 0.777588 39.7472 0.777588H39.8638C45.0483 0.777588 50.7318 1.87877 55.6963 2.84064C58.3383 3.35252 60.7766 3.82495 62.8277 4.07096C64.4146 4.26222 65.7117 5.40982 66.0972 6.96088C67.3046 11.8173 69.7163 22.4804 70.4933 33.0299C70.6906 35.7375 68.8138 38.1493 66.148 38.6484ZM72.6425 34.511C72.4393 33.9074 73.1924 33.4262 73.6616 33.8565V33.8595C75.8014 35.829 76.677 37.8821 76.3812 40.5359C76.0315 43.6829 72.9473 45.9781 68.2882 47.3737C68.1746 47.7323 68.0162 48.073 67.807 48.3838C63.7665 54.4416 46.6512 66.2075 40.6083 70.242C39.3233 71.0997 37.6497 71.0997 36.3646 70.242C30.3218 66.2075 13.2064 54.4416 9.16592 48.3838C8.89396 47.9774 8.70568 47.5261 8.59212 47.0509C7.63877 43.0254 7.41762 38.2168 7.62383 33.2529C2.64791 29.2034 6.65188e-05 24.9089 0.62766 20.9341C0.863754 19.4428 1.96055 18.2414 3.68792 17.321C4.59046 16.8398 4.96403 17.2104 4.54564 18.1428C4.43805 18.3789 4.36035 18.6269 4.30954 18.884C3.17688 24.7176 17.477 34.526 37.0669 39.4152C55.9784 44.1341 75.4697 42.8491 72.6425 34.511Z" fill="url(#paint0_linear_12_247)"/>
<defs>
<linearGradient id="paint0_linear_12_247" x1="38.4867" y1="0.777588" x2="38.4867" y2="70.8853" gradientUnits="userSpaceOnUse">
<stop stop-color="#78FFEF"/>
<stop offset="1" stop-color="#00C2FF"/>
</linearGradient>
</defs>
</svg>
