<svg width="24" height="25" viewBox="0 0 24 25" fill="none" xmlns="http://www.w3.org/2000/svg">
<path d="M9.24993 0.293335H1.74994C0.784972 0.293335 0 1.07831 0 2.04327V6.54327C0 7.50841 0.784972 8.29339 1.74994 8.29339H9.24993C10.2151 8.29339 11 7.50841 11 6.54327V2.04327C11 1.07831 10.2151 0.293335 9.24993 0.293335Z" fill="white"/>
<path d="M9.24993 10.2933H1.74994C0.784972 10.2933 0 11.0783 0 12.0434V22.5434C0 23.5084 0.784972 24.2934 1.74994 24.2934H9.24993C10.2151 24.2934 11 23.5084 11 22.5434V12.0434C11 11.0783 10.2151 10.2933 9.24993 10.2933Z" fill="white"/>
<path d="M22.2494 16.2933H14.7494C13.7842 16.2933 12.9993 17.0783 12.9993 18.0434V22.5434C12.9993 23.5084 13.7842 24.2934 14.7494 24.2934H22.2494C23.2143 24.2934 23.9993 23.5084 23.9993 22.5434V18.0434C23.9993 17.0783 23.2143 16.2933 22.2494 16.2933Z" fill="white"/>
<path d="M22.2494 0.293335H14.7494C13.7842 0.293335 12.9993 1.07831 12.9993 2.04327V12.5433C12.9993 13.5084 13.7842 14.2934 14.7494 14.2934H22.2494C23.2143 14.2934 23.9993 13.5084 23.9993 12.5433V2.04327C23.9993 1.07831 23.2143 0.293335 22.2494 0.293335Z" fill="white"/>
</svg>
