<svg width="401" height="71" viewBox="0 0 401 71" fill="none" xmlns="http://www.w3.org/2000/svg">
<path fill-rule="evenodd" clip-rule="evenodd" d="M66.148 38.6484C59.2325 39.9454 48.8085 39.4911 38.5458 37.1152H38.5488C24.5744 33.8816 14.7451 28.1825 11.2754 25.8305C10.4865 25.2956 10.077 24.3572 10.2205 23.4128C11.2665 16.4674 12.6771 10.3409 13.5138 6.97881C13.9024 5.41879 15.2083 4.26521 16.8042 4.07096C18.8458 3.82391 21.2706 3.35375 23.8976 2.84439C28.8657 1.88111 34.5571 0.777588 39.7472 0.777588H39.8638C45.0483 0.777588 50.7318 1.87877 55.6963 2.84064C58.3383 3.35252 60.7766 3.82495 62.8277 4.07096C64.4146 4.26222 65.7117 5.40982 66.0972 6.96088C67.3046 11.8173 69.7163 22.4804 70.4933 33.0299C70.6906 35.7375 68.8138 38.1493 66.148 38.6484ZM72.6425 34.511C72.4393 33.9074 73.1924 33.4262 73.6616 33.8565V33.8595C75.8014 35.829 76.677 37.8821 76.3812 40.5359C76.0315 43.6829 72.9473 45.9781 68.2882 47.3737C68.1746 47.7323 68.0162 48.073 67.807 48.3838C63.7665 54.4416 46.6512 66.2075 40.6083 70.242C39.3233 71.0997 37.6497 71.0997 36.3646 70.242C30.3218 66.2075 13.2064 54.4416 9.16592 48.3838C8.89396 47.9774 8.70568 47.5261 8.59212 47.0509C7.63877 43.0254 7.41762 38.2168 7.62383 33.2529C2.64791 29.2034 6.65188e-05 24.9089 0.62766 20.9341C0.863754 19.4428 1.96055 18.2414 3.68792 17.321C4.59046 16.8398 4.96403 17.2104 4.54564 18.1428C4.43805 18.3789 4.36035 18.6269 4.30954 18.884C3.17688 24.7176 17.477 34.526 37.0669 39.4152C55.9784 44.1341 75.4697 42.8491 72.6425 34.511Z" fill="url(#paint0_linear_12_246)"/>
<path d="M104.727 53.7776V17.0496H120.677C123.126 17.0496 125.189 17.4169 126.868 18.1514C128.582 18.851 129.876 19.8829 130.751 21.2471C131.625 22.6113 132.063 24.2378 132.063 26.1267C132.063 28.2254 131.538 29.9744 130.489 31.3735C129.439 32.7727 127.935 33.7346 125.976 34.2593L125.924 33.2099C127.568 33.5947 128.985 34.2243 130.174 35.0988C131.398 35.9733 132.342 37.0576 133.007 38.3518C133.672 39.6461 134.004 41.1152 134.004 42.7592C134.004 44.5781 133.707 46.1871 133.112 47.5863C132.517 48.9505 131.643 50.0873 130.489 50.9968C129.334 51.9062 127.97 52.6058 126.396 53.0955C124.857 53.5502 123.126 53.7776 121.202 53.7776H104.727ZM112.282 46.9567H120.887C122.006 46.9567 122.951 46.7993 123.72 46.4845C124.525 46.1347 125.137 45.61 125.557 44.9104C125.976 44.2108 126.186 43.3888 126.186 42.4444C126.186 41.5349 125.959 40.7654 125.504 40.1358C125.049 39.5061 124.402 39.0339 123.563 38.7191C122.758 38.3693 121.779 38.1944 120.625 38.1944H112.282V46.9567ZM112.282 31.9507H119.733C120.677 31.9507 121.499 31.7758 122.199 31.426C122.898 31.0762 123.423 30.604 123.773 30.0093C124.157 29.4147 124.35 28.7151 124.35 27.9106C124.35 26.6164 123.93 25.6195 123.091 24.9199C122.251 24.2203 120.974 23.8705 119.26 23.8705H112.282V31.9507ZM140.108 53.7776V26.0217H147.296L147.559 34.9414L146.299 33.105C146.719 31.6708 147.401 30.3766 148.346 29.2223C149.29 28.033 150.392 27.1061 151.651 26.4415C152.945 25.7769 154.292 25.4446 155.691 25.4446C156.286 25.4446 156.863 25.497 157.423 25.602C157.982 25.7069 158.454 25.8293 158.839 25.9692L156.845 34.1543C156.461 33.9445 155.953 33.7696 155.324 33.6297C154.729 33.4548 154.117 33.3673 153.487 33.3673C152.648 33.3673 151.861 33.5247 151.126 33.8395C150.427 34.1194 149.815 34.5391 149.29 35.0988C148.765 35.6235 148.346 36.2531 148.031 36.9876C147.751 37.7222 147.611 38.5267 147.611 39.4012V53.7776H140.108ZM172.324 54.3023C170.016 54.3023 167.935 53.6727 166.081 52.4134C164.227 51.1542 162.758 49.4402 161.673 47.2715C160.589 45.1028 160.047 42.6193 160.047 39.821C160.047 37.0226 160.589 34.5391 161.673 32.3704C162.793 30.2017 164.297 28.5052 166.186 27.281C168.075 26.0567 170.226 25.4446 172.639 25.4446C174.003 25.4446 175.245 25.6544 176.365 26.0742C177.519 26.459 178.516 27.0011 179.355 27.7007C180.23 28.4003 180.964 29.2048 181.559 30.1143C182.154 31.0237 182.573 32.0031 182.818 33.0525L181.244 32.7902V26.0217H188.642V53.7776H181.139V47.1141L182.818 46.9567C182.538 47.9361 182.084 48.863 181.454 49.7375C180.824 50.612 180.037 51.399 179.093 52.0986C178.183 52.7632 177.152 53.3054 175.997 53.7251C174.843 54.1099 173.619 54.3023 172.324 54.3023ZM174.371 47.8486C175.77 47.8486 176.994 47.5163 178.044 46.8517C179.093 46.1871 179.897 45.2602 180.457 44.0709C181.052 42.8466 181.349 41.43 181.349 39.821C181.349 38.2469 181.052 36.8652 180.457 35.6759C179.897 34.4866 179.093 33.5597 178.044 32.8951C176.994 32.1955 175.77 31.8457 174.371 31.8457C173.007 31.8457 171.8 32.1955 170.75 32.8951C169.736 33.5597 168.932 34.4866 168.337 35.6759C167.742 36.8652 167.445 38.2469 167.445 39.821C167.445 41.43 167.742 42.8466 168.337 44.0709C168.932 45.2602 169.736 46.1871 170.75 46.8517C171.8 47.5163 173.007 47.8486 174.371 47.8486ZM196.112 53.7776V26.0217H203.248L203.458 31.6883L201.988 32.3179C202.373 31.0587 203.055 29.9219 204.035 28.9075C205.049 27.8581 206.256 27.0186 207.655 26.389C209.054 25.7594 210.523 25.4446 212.062 25.4446C214.161 25.4446 215.91 25.8643 217.309 26.7038C218.743 27.5433 219.81 28.82 220.51 30.534C221.244 32.213 221.612 34.2943 221.612 36.7778V53.7776H214.161V37.3549C214.161 36.0957 213.986 35.0463 213.637 34.2068C213.287 33.3673 212.745 32.7552 212.01 32.3704C211.31 31.9856 210.436 31.8107 209.387 31.8457C208.547 31.8457 207.76 31.9856 207.025 32.2655C206.326 32.5103 205.714 32.8776 205.189 33.3673C204.699 33.857 204.297 34.4167 203.982 35.0463C203.702 35.6759 203.563 36.358 203.563 37.0926V53.7776H199.89C199.085 53.7776 198.368 53.7776 197.739 53.7776C197.109 53.7776 196.567 53.7776 196.112 53.7776ZM239.612 54.3023C237.164 54.3023 234.977 53.6901 233.054 52.4659C231.165 51.2066 229.661 49.5101 228.541 47.3764C227.457 45.2077 226.915 42.7067 226.915 39.8734C226.915 37.1101 227.457 34.6441 228.541 32.4754C229.661 30.2717 231.165 28.5577 233.054 27.3334C234.977 26.0742 237.164 25.4446 239.612 25.4446C240.906 25.4446 242.148 25.6544 243.337 26.0742C244.562 26.459 245.646 27.0011 246.59 27.7007C247.57 28.4003 248.357 29.1873 248.952 30.0618C249.546 30.9013 249.878 31.7758 249.948 32.6852L248.06 33.0525V14.9509H255.563V53.7776H248.479L248.165 47.3764L249.634 47.5338C249.564 48.4083 249.249 49.2478 248.689 50.0523C248.13 50.8568 247.377 51.5914 246.433 52.256C245.524 52.8856 244.474 53.3928 243.285 53.7776C242.131 54.1274 240.906 54.3023 239.612 54.3023ZM241.291 48.111C242.69 48.111 243.915 47.7612 244.964 47.0616C246.013 46.362 246.835 45.4001 247.43 44.1758C248.025 42.9516 248.322 41.5174 248.322 39.8734C248.322 38.2644 248.025 36.8477 247.43 35.6235C246.835 34.3992 246.013 33.4373 244.964 32.7377C243.915 32.0381 242.69 31.6883 241.291 31.6883C239.892 31.6883 238.668 32.0381 237.618 32.7377C236.604 33.4373 235.799 34.3992 235.205 35.6235C234.645 36.8477 234.365 38.2644 234.365 39.8734C234.365 41.5174 234.645 42.9516 235.205 44.1758C235.799 45.4001 236.604 46.362 237.618 47.0616C238.668 47.7612 239.892 48.111 241.291 48.111ZM291.822 54.3023C289.549 54.3023 287.468 54.0224 285.579 53.4628C283.725 52.9031 282.063 52.0811 280.594 50.9968C279.16 49.9124 277.866 48.6007 276.712 47.0616L281.644 41.4475C283.358 43.8261 285.054 45.4526 286.733 46.3271C288.447 47.1665 290.301 47.5863 292.295 47.5863C293.379 47.5863 294.341 47.4289 295.18 47.1141C296.055 46.7993 296.737 46.3795 297.227 45.8548C297.716 45.2952 297.961 44.6306 297.961 43.861C297.961 43.3014 297.839 42.7942 297.594 42.3394C297.349 41.8497 296.999 41.43 296.545 41.0802C296.09 40.6954 295.548 40.3631 294.918 40.0833C294.288 39.7685 293.589 39.5061 292.819 39.2963C292.05 39.0514 291.21 38.859 290.301 38.7191C288.342 38.2644 286.628 37.7222 285.159 37.0926C283.69 36.428 282.466 35.6235 281.486 34.679C280.507 33.6996 279.772 32.5978 279.282 31.3735C278.828 30.1492 278.6 28.7676 278.6 27.2285C278.6 25.6544 278.95 24.2028 279.65 22.8736C280.349 21.5094 281.311 20.3376 282.536 19.3582C283.795 18.3788 285.229 17.6267 286.838 17.1021C288.482 16.5774 290.213 16.315 292.032 16.315C294.271 16.315 296.23 16.5599 297.909 17.0496C299.588 17.5393 301.039 18.2739 302.264 19.2533C303.523 20.1977 304.572 21.352 305.412 22.7162L300.427 27.5433C299.693 26.5639 298.888 25.7419 298.014 25.0773C297.174 24.4127 296.247 23.923 295.233 23.6082C294.253 23.2584 293.239 23.0835 292.19 23.0835C291.035 23.0835 290.039 23.2409 289.199 23.5557C288.36 23.8355 287.695 24.2728 287.205 24.8674C286.75 25.4271 286.523 26.0917 286.523 26.8612C286.523 27.4908 286.681 28.0505 286.995 28.5402C287.31 29.0299 287.765 29.4672 288.36 29.8519C288.954 30.2017 289.671 30.5165 290.511 30.7964C291.35 31.0762 292.277 31.321 293.292 31.5309C295.215 31.9157 296.947 32.4229 298.486 33.0525C300.025 33.6821 301.337 34.4517 302.421 35.3611C303.54 36.2356 304.397 37.285 304.992 38.5092C305.587 39.6985 305.884 41.0452 305.884 42.5493C305.884 45.0328 305.289 47.1491 304.1 48.898C302.911 50.647 301.267 51.9937 299.168 52.9381C297.069 53.8475 294.621 54.3023 291.822 54.3023ZM322.352 54.3023C320.043 54.3023 317.962 53.6727 316.108 52.4134C314.254 51.1542 312.785 49.4402 311.701 47.2715C310.616 45.1028 310.074 42.6193 310.074 39.821C310.074 37.0226 310.616 34.5391 311.701 32.3704C312.82 30.2017 314.324 28.5052 316.213 27.281C318.102 26.0567 320.253 25.4446 322.667 25.4446C324.031 25.4446 325.273 25.6544 326.392 26.0742C327.546 26.459 328.543 27.0011 329.383 27.7007C330.257 28.4003 330.992 29.2048 331.586 30.1143C332.181 31.0237 332.601 32.0031 332.845 33.0525L331.271 32.7902V26.0217H338.669V53.7776H331.166V47.1141L332.845 46.9567C332.566 47.9361 332.111 48.863 331.481 49.7375C330.852 50.612 330.065 51.399 329.12 52.0986C328.211 52.7632 327.179 53.3054 326.025 53.7251C324.87 54.1099 323.646 54.3023 322.352 54.3023ZM324.398 47.8486C325.797 47.8486 327.021 47.5163 328.071 46.8517C329.12 46.1871 329.925 45.2602 330.484 44.0709C331.079 42.8466 331.376 41.43 331.376 39.821C331.376 38.2469 331.079 36.8652 330.484 35.6759C329.925 34.4866 329.12 33.5597 328.071 32.8951C327.021 32.1955 325.797 31.8457 324.398 31.8457C323.034 31.8457 321.827 32.1955 320.778 32.8951C319.763 33.5597 318.959 34.4866 318.364 35.6759C317.77 36.8652 317.472 38.2469 317.472 39.821C317.472 41.43 317.77 42.8466 318.364 44.0709C318.959 45.2602 319.763 46.1871 320.778 46.8517C321.827 47.5163 323.034 47.8486 324.398 47.8486ZM348.291 53.7776V24.0804C348.291 22.3664 348.675 20.8098 349.445 19.4107C350.214 18.0115 351.264 16.9097 352.593 16.1052C353.957 15.3006 355.549 14.8984 357.368 14.8984C358.592 14.8984 359.746 15.1083 360.83 15.528C361.915 15.9128 362.842 16.4375 363.611 17.1021L361.408 22.6113C360.953 22.3314 360.481 22.1041 359.991 21.9292C359.536 21.7193 359.117 21.6144 358.732 21.6144C358.067 21.6144 357.507 21.7368 357.053 21.9816C356.633 22.1915 356.318 22.5238 356.108 22.9785C355.898 23.3983 355.794 23.9405 355.794 24.6051V53.7776H352.068C351.264 53.7776 350.547 53.7776 349.917 53.7776C349.287 53.7776 348.745 53.7776 348.291 53.7776ZM344.145 33V26.7038H361.775V33H344.145ZM378.882 54.3023C375.874 54.3023 373.233 53.6901 370.959 52.4659C368.721 51.2416 366.972 49.5626 365.713 47.4289C364.488 45.2952 363.876 42.8466 363.876 40.0833C363.876 37.9146 364.226 35.9383 364.926 34.1543C365.625 32.3704 366.605 30.8313 367.864 29.5371C369.123 28.2079 370.61 27.1935 372.324 26.4939C374.073 25.7594 375.961 25.3921 377.99 25.3921C379.879 25.3921 381.628 25.7419 383.237 26.4415C384.846 27.141 386.228 28.1205 387.382 29.3797C388.571 30.604 389.481 32.0731 390.11 33.7871C390.74 35.4661 391.02 37.285 390.95 39.2438L390.897 41.5524H368.598L367.392 36.9876H384.759L383.919 37.9321V36.7778C383.849 35.8333 383.534 34.9938 382.975 34.2593C382.45 33.4897 381.768 32.8951 380.928 32.4754C380.089 32.0206 379.144 31.7933 378.095 31.7933C376.556 31.7933 375.244 32.0906 374.16 32.6852C373.111 33.2799 372.306 34.1543 371.746 35.3087C371.187 36.463 370.907 37.8621 370.907 39.5061C370.907 41.1851 371.257 42.6368 371.956 43.861C372.691 45.0853 373.705 46.0472 374.999 46.7468C376.329 47.4114 377.885 47.7437 379.669 47.7437C380.893 47.7437 382.013 47.5513 383.027 47.1665C384.042 46.7818 385.126 46.1172 386.28 45.1727L389.848 50.1573C388.834 51.0667 387.714 51.8363 386.49 52.4659C385.266 53.0605 384.007 53.5152 382.712 53.8301C381.418 54.1449 380.141 54.3023 378.882 54.3023Z" fill="#202020"/>
<defs>
<linearGradient id="paint0_linear_12_246" x1="38.4867" y1="0.777588" x2="38.4867" y2="70.8853" gradientUnits="userSpaceOnUse">
<stop stop-color="#78FFEF"/>
<stop offset="1" stop-color="#00C2FF"/>
</linearGradient>
</defs>
</svg>
