<svg width="21" height="22" viewBox="0 0 21 22" fill="none" xmlns="http://www.w3.org/2000/svg">
<path d="M16.3926 7C16.3926 5.4087 15.7604 3.88258 14.6352 2.75736C13.51 1.63214 11.9839 1 10.3926 1C8.80128 1 7.27516 1.63214 6.14994 2.75736C5.02472 3.88258 4.39258 5.4087 4.39258 7C4.39258 14 1.39258 16 1.39258 16H19.3926C19.3926 16 16.3926 14 16.3926 7Z" stroke="black" stroke-width="2" stroke-linecap="round" stroke-linejoin="round"/>
<path d="M12.1226 20C11.9468 20.3031 11.6944 20.5547 11.3908 20.7295C11.0872 20.9044 10.743 20.9965 10.3926 20.9965C10.0422 20.9965 9.69799 20.9044 9.39437 20.7295C9.09075 20.5547 8.83841 20.3031 8.6626 20" stroke="black" stroke-width="2" stroke-linecap="round" stroke-linejoin="round"/>
</svg>
