<svg width="206" height="37" viewBox="0 0 206 37" fill="none" xmlns="http://www.w3.org/2000/svg">
<path fill-rule="evenodd" clip-rule="evenodd" d="M33.6911 20.2204C30.14 20.8864 24.7874 20.6532 19.5175 19.4331H19.5191C12.3433 17.7727 7.29596 14.8462 5.51429 13.6385C5.10916 13.3638 4.89892 12.8819 4.97258 12.397C5.50969 8.83058 6.23402 5.68465 6.66371 3.95822C6.86321 3.15716 7.53383 2.56481 8.3533 2.46506C9.40162 2.3382 10.6467 2.09678 11.9957 1.83522C14.5468 1.34058 17.4693 0.773926 20.1344 0.773926H20.1943C22.8565 0.773926 25.775 1.33938 28.3242 1.83329C29.6808 2.09614 30.9329 2.33873 31.9862 2.46506C32.801 2.56327 33.4671 3.15256 33.665 3.94902C34.285 6.44274 35.5234 11.9182 35.9224 17.3353C36.0237 18.7257 35.06 19.9641 33.6911 20.2204ZM37.026 18.0959C36.9217 17.7859 37.3084 17.5388 37.5493 17.7598V17.7614C38.6481 18.7727 39.0978 19.8269 38.9458 21.1897C38.7663 22.8056 37.1826 23.9842 34.7901 24.7008C34.7318 24.885 34.6505 25.0599 34.5431 25.2195C32.4683 28.3302 23.6796 34.3719 20.5766 36.4436C19.9168 36.884 19.0574 36.884 18.3975 36.4436C15.2945 34.3719 6.50589 28.3302 4.4311 25.2195C4.29146 25.0108 4.19478 24.7791 4.13646 24.5351C3.64692 22.468 3.53336 19.9988 3.63925 17.4498C1.08414 15.3705 -0.275518 13.1652 0.046748 11.1242C0.167982 10.3584 0.73118 9.74154 1.61818 9.26888C2.08163 9.02181 2.27345 9.2121 2.05861 9.69089C2.00337 9.81213 1.96347 9.9395 1.93738 10.0715C1.35576 13.067 8.69883 18.1036 18.7581 20.6142C28.4691 23.0373 38.4778 22.3774 37.026 18.0959Z" fill="white"/>
<path d="M53.7247 27.7739V8.66403H61.6963C62.9156 8.66403 63.9439 8.84603 64.7811 9.21003C65.6183 9.57403 66.2462 10.12 66.6648 10.848C67.1016 11.5578 67.32 12.4314 67.32 13.4688C67.32 14.5062 67.0288 15.3889 66.4464 16.1169C65.8822 16.8449 65.0905 17.3454 64.0713 17.6184V17.0724C64.9267 17.2544 65.6729 17.582 66.3099 18.0552C66.9469 18.5102 67.4383 19.0835 67.7841 19.7751C68.1481 20.4667 68.3301 21.2584 68.3301 22.1502C68.3301 23.0602 68.1845 23.87 67.8933 24.5798C67.6203 25.2714 67.2017 25.8538 66.6375 26.327C66.0915 26.8002 65.4272 27.1642 64.6446 27.419C63.862 27.6556 62.9702 27.7739 61.9693 27.7739H53.7247ZM56.6731 24.9347H61.8055C62.5517 24.9347 63.1795 24.8255 63.6891 24.6071C64.2169 24.3887 64.6173 24.0702 64.8903 23.6516C65.1815 23.2149 65.3271 22.6962 65.3271 22.0956C65.3271 21.5314 65.1724 21.0491 64.863 20.6487C64.5718 20.2483 64.1532 19.948 63.6072 19.7478C63.0612 19.5294 62.4152 19.4202 61.669 19.4202H56.6731V24.9347ZM56.6731 16.581H61.5325C62.0785 16.581 62.5608 16.4718 62.9793 16.2534C63.4161 16.035 63.7528 15.7347 63.9894 15.3525C64.2442 14.9703 64.3716 14.5335 64.3716 14.0421C64.3716 13.2231 64.0986 12.5952 63.5526 12.1584C63.0066 11.7216 62.2241 11.5032 61.2049 11.5032H56.6731V16.581ZM71.5969 27.7739V13.4415H74.4361V17.946L74.1631 16.854C74.3633 16.1624 74.7 15.5345 75.1732 14.9703C75.6646 14.4061 76.2197 13.9602 76.8385 13.6326C77.4755 13.305 78.1307 13.1412 78.8041 13.1412C79.1135 13.1412 79.4047 13.1685 79.6777 13.2231C79.9689 13.2777 80.1964 13.3414 80.3602 13.4142L79.6231 16.4718C79.4047 16.3808 79.159 16.308 78.886 16.2534C78.6312 16.1806 78.3764 16.1442 78.1216 16.1442C77.6302 16.1442 77.157 16.2443 76.702 16.4445C76.2652 16.6265 75.8739 16.8904 75.5281 17.2362C75.2005 17.5638 74.9366 17.9551 74.7364 18.4101C74.5362 18.8469 74.4361 19.3292 74.4361 19.857V27.7739H71.5969ZM87.5089 28.0469C86.3259 28.0469 85.243 27.7193 84.2602 27.0641C83.2956 26.4089 82.5221 25.5171 81.9397 24.3887C81.3573 23.2604 81.0661 21.9864 81.0661 20.5668C81.0661 19.129 81.3573 17.855 81.9397 16.7448C82.5403 15.6164 83.3411 14.7337 84.3421 14.0967C85.3613 13.4597 86.4988 13.1412 87.7546 13.1412C88.5008 13.1412 89.1833 13.2504 89.8021 13.4688C90.4209 13.6872 90.9578 13.9966 91.4128 14.397C91.886 14.7792 92.2682 15.2251 92.5594 15.7347C92.8688 16.2443 93.0599 16.7903 93.1327 17.3727L92.5048 17.1543V13.4415H95.344V27.7739H92.5048V24.3614L93.16 24.1703C93.0508 24.6617 92.8233 25.144 92.4775 25.6172C92.1499 26.0722 91.7222 26.4817 91.1944 26.8457C90.6848 27.2097 90.1115 27.5009 89.4745 27.7193C88.8557 27.9377 88.2005 28.0469 87.5089 28.0469ZM88.246 25.4534C89.1014 25.4534 89.8567 25.2441 90.5119 24.8255C91.1671 24.4069 91.6767 23.8336 92.0407 23.1057C92.4229 22.3595 92.614 21.5132 92.614 20.5668C92.614 19.6386 92.4229 18.8105 92.0407 18.0825C91.6767 17.3545 91.1671 16.7812 90.5119 16.3626C89.8567 15.944 89.1014 15.7347 88.246 15.7347C87.4088 15.7347 86.6626 15.944 86.0074 16.3626C85.3704 16.7812 84.8608 17.3545 84.4786 18.0825C84.1146 18.8105 83.9326 19.6386 83.9326 20.5668C83.9326 21.5132 84.1146 22.3595 84.4786 23.1057C84.8608 23.8336 85.3704 24.4069 86.0074 24.8255C86.6626 25.2441 87.4088 25.4534 88.246 25.4534ZM99.27 27.7739V13.4415H102.082V16.3899L101.591 16.7175C101.772 16.0805 102.127 15.4981 102.655 14.9703C103.183 14.4243 103.811 13.9875 104.539 13.6599C105.267 13.3141 106.013 13.1412 106.777 13.1412C107.869 13.1412 108.779 13.3596 109.507 13.7964C110.235 14.215 110.781 14.8611 111.145 15.7347C111.509 16.6083 111.691 17.7094 111.691 19.038V27.7739H108.88V19.2291C108.88 18.4101 108.77 17.7367 108.552 17.2089C108.334 16.6629 107.997 16.2716 107.542 16.035C107.087 15.7802 106.523 15.671 105.849 15.7074C105.303 15.7074 104.803 15.7984 104.348 15.9804C103.893 16.1442 103.492 16.3808 103.147 16.6902C102.819 16.9996 102.555 17.3636 102.355 17.7822C102.173 18.1826 102.082 18.6194 102.082 19.0926V27.7739H100.69C100.453 27.7739 100.216 27.7739 99.9798 27.7739C99.7432 27.7739 99.5066 27.7739 99.27 27.7739ZM121.485 28.0469C120.174 28.0469 119 27.7284 117.963 27.0914C116.944 26.4362 116.134 25.5535 115.533 24.4433C114.933 23.315 114.632 22.0319 114.632 20.5941C114.632 19.1563 114.924 17.8823 115.506 16.7721C116.107 15.6437 116.916 14.761 117.936 14.124C118.955 13.4688 120.111 13.1412 121.403 13.1412C122.113 13.1412 122.795 13.2595 123.45 13.4961C124.124 13.7145 124.724 14.0239 125.252 14.4243C125.78 14.8065 126.189 15.2342 126.48 15.7074C126.79 16.1624 126.945 16.6265 126.945 17.0997L126.126 17.1543V7.57204H128.937V27.7739H126.126V24.3614H126.672C126.672 24.7982 126.526 25.235 126.235 25.6718C125.944 26.0904 125.552 26.4817 125.061 26.8457C124.588 27.2097 124.033 27.5009 123.396 27.7193C122.777 27.9377 122.14 28.0469 121.485 28.0469ZM121.867 25.6172C122.722 25.6172 123.478 25.3988 124.133 24.962C124.788 24.5252 125.298 23.9337 125.661 23.1876C126.044 22.4232 126.235 21.5587 126.235 20.5941C126.235 19.6295 126.044 18.7741 125.661 18.0279C125.298 17.2635 124.788 16.6629 124.133 16.2261C123.478 15.7893 122.722 15.5709 121.867 15.5709C121.011 15.5709 120.256 15.7893 119.601 16.2261C118.946 16.6629 118.427 17.2635 118.045 18.0279C117.681 18.7741 117.499 19.6295 117.499 20.5941C117.499 21.5587 117.681 22.4232 118.045 23.1876C118.427 23.9337 118.946 24.5252 119.601 24.962C120.256 25.3988 121.011 25.6172 121.867 25.6172ZM147.066 28.0469C146.029 28.0469 145.064 27.9104 144.173 27.6374C143.299 27.3644 142.498 26.9549 141.77 26.4089C141.06 25.8447 140.423 25.1531 139.859 24.3341L141.879 22.0137C142.771 23.2877 143.627 24.1703 144.445 24.6617C145.264 25.1531 146.238 25.3988 147.367 25.3988C148.058 25.3988 148.686 25.2896 149.25 25.0712C149.814 24.8528 150.26 24.5525 150.588 24.1703C150.916 23.7881 151.079 23.3514 151.079 22.86C151.079 22.5324 151.025 22.223 150.916 21.9318C150.806 21.6406 150.633 21.3767 150.397 21.1401C150.178 20.9035 149.887 20.6851 149.523 20.4849C149.177 20.2847 148.768 20.1118 148.295 19.9662C147.822 19.8024 147.276 19.6659 146.657 19.5567C145.674 19.3565 144.819 19.0926 144.091 18.765C143.363 18.4374 142.753 18.0279 142.262 17.5365C141.77 17.0451 141.406 16.49 141.17 15.8712C140.933 15.2342 140.815 14.5244 140.815 13.7418C140.815 12.9774 140.978 12.2676 141.306 11.6124C141.652 10.9572 142.116 10.393 142.698 9.91983C143.299 9.42843 144 9.05533 144.8 8.80053C145.601 8.52753 146.466 8.39103 147.394 8.39103C148.377 8.39103 149.278 8.51843 150.097 8.77323C150.916 9.02803 151.644 9.41023 152.281 9.91983C152.918 10.4112 153.445 11.0209 153.864 11.7489L151.789 13.7964C151.425 13.1958 151.016 12.6953 150.561 12.2949C150.106 11.8763 149.605 11.5669 149.059 11.3667C148.513 11.1483 147.931 11.0391 147.312 11.0391C146.602 11.0391 145.983 11.1483 145.456 11.3667C144.928 11.5851 144.509 11.8945 144.2 12.2949C143.909 12.6771 143.763 13.1321 143.763 13.6599C143.763 14.0421 143.836 14.397 143.981 14.7246C144.127 15.034 144.345 15.3161 144.637 15.5709C144.946 15.8075 145.355 16.0259 145.865 16.2261C146.375 16.4081 146.984 16.5719 147.694 16.7175C148.695 16.9359 149.587 17.218 150.37 17.5638C151.152 17.8914 151.816 18.2827 152.362 18.7377C152.908 19.1927 153.318 19.7023 153.591 20.2665C153.882 20.8307 154.028 21.4404 154.028 22.0956C154.028 23.315 153.746 24.3705 153.181 25.2623C152.617 26.1541 151.816 26.8457 150.779 27.3371C149.742 27.8103 148.504 28.0469 147.066 28.0469ZM163.01 28.0469C161.827 28.0469 160.744 27.7193 159.761 27.0641C158.797 26.4089 158.023 25.5171 157.441 24.3887C156.858 23.2604 156.567 21.9864 156.567 20.5668C156.567 19.129 156.858 17.855 157.441 16.7448C158.041 15.6164 158.842 14.7337 159.843 14.0967C160.862 13.4597 162 13.1412 163.256 13.1412C164.002 13.1412 164.684 13.2504 165.303 13.4688C165.922 13.6872 166.459 13.9966 166.914 14.397C167.387 14.7792 167.769 15.2251 168.061 15.7347C168.37 16.2443 168.561 16.7903 168.634 17.3727L168.006 17.1543V13.4415H170.845V27.7739H168.006V24.3614L168.661 24.1703C168.552 24.6617 168.324 25.144 167.979 25.6172C167.651 26.0722 167.223 26.4817 166.696 26.8457C166.186 27.2097 165.613 27.5009 164.976 27.7193C164.357 27.9377 163.702 28.0469 163.01 28.0469ZM163.747 25.4534C164.603 25.4534 165.358 25.2441 166.013 24.8255C166.668 24.4069 167.178 23.8336 167.542 23.1057C167.924 22.3595 168.115 21.5132 168.115 20.5668C168.115 19.6386 167.924 18.8105 167.542 18.0825C167.178 17.3545 166.668 16.7812 166.013 16.3626C165.358 15.944 164.603 15.7347 163.747 15.7347C162.91 15.7347 162.164 15.944 161.509 16.3626C160.872 16.7812 160.362 17.3545 159.98 18.0825C159.616 18.8105 159.434 19.6386 159.434 20.5668C159.434 21.5132 159.616 22.3595 159.98 23.1057C160.362 23.8336 160.872 24.4069 161.509 24.8255C162.164 25.2441 162.91 25.4534 163.747 25.4534ZM176.327 27.7739V11.8308C176.327 11.0118 176.509 10.2838 176.873 9.64683C177.237 9.00983 177.738 8.50933 178.375 8.14534C179.012 7.78134 179.749 7.59934 180.586 7.59934C181.168 7.59934 181.714 7.70854 182.224 7.92694C182.734 8.14534 183.143 8.43653 183.452 8.80053L182.497 10.9572C182.26 10.7388 181.997 10.5659 181.705 10.4385C181.432 10.2929 181.168 10.2201 180.914 10.2201C180.531 10.2201 180.204 10.2838 179.931 10.4112C179.676 10.5204 179.485 10.7024 179.358 10.9572C179.23 11.1938 179.166 11.485 179.166 11.8308V27.7739H177.747C177.51 27.7739 177.274 27.7739 177.037 27.7739C176.8 27.7739 176.564 27.7739 176.327 27.7739ZM174.034 16.2807V13.6872H182.552V16.2807H174.034ZM191.644 28.0469C190.17 28.0469 188.859 27.7375 187.713 27.1187C186.584 26.4817 185.692 25.6172 185.037 24.5252C184.4 23.4333 184.082 22.1775 184.082 20.7579C184.082 19.6295 184.264 18.6012 184.628 17.673C184.992 16.7448 185.492 15.944 186.129 15.2706C186.784 14.579 187.558 14.0512 188.45 13.6872C189.36 13.305 190.342 13.1139 191.398 13.1139C192.326 13.1139 193.191 13.2959 193.992 13.6599C194.792 14.0057 195.484 14.488 196.066 15.1068C196.667 15.7256 197.122 16.4627 197.431 17.3181C197.759 18.1553 197.914 19.0744 197.895 20.0754L197.868 21.2766H186.156L185.529 19.038H195.438L195.029 19.5021V18.8469C194.974 18.2463 194.774 17.7094 194.428 17.2362C194.083 16.763 193.646 16.3899 193.118 16.1169C192.59 15.8439 192.017 15.7074 191.398 15.7074C190.415 15.7074 189.587 15.8985 188.914 16.2807C188.24 16.6447 187.731 17.1907 187.385 17.9187C187.039 18.6285 186.866 19.5112 186.866 20.5668C186.866 21.5678 187.076 22.4414 187.494 23.1876C187.913 23.9155 188.504 24.4797 189.269 24.8801C190.033 25.2805 190.916 25.4807 191.917 25.4807C192.627 25.4807 193.282 25.3624 193.882 25.1258C194.501 24.8892 195.165 24.4615 195.875 23.8427L197.295 25.8356C196.858 26.2724 196.321 26.6546 195.684 26.9822C195.065 27.3098 194.401 27.5737 193.691 27.7739C193 27.9559 192.317 28.0469 191.644 28.0469Z" fill="white"/>
</svg>
